# xmcd CD database file
#
# Track frame offsets:
#	150
#	13827
#	32030
#	47877
#	66277
#	82747
#	103155
#	124632
#	145032
#	165200
#	183915
#	202660
#	214922
#	230600
#	246862
#	260660
#	277522
#	294012
#
# Disc length: 4168 seconds
#
# Revision: 0
# Processed by: cddbd v1.5.2PL0 Copyright (c) Steve Scherf et al.
# Submitted via: CDex 1.51
#
DISCID=ee104612
DTITLE=Bars - Quan ens veiem
DYEAR=1999
DGENRE=Country
TTITLE0=Mai és tard
TTITLE1=Quan ens veiem
TTITLE2=Temps perdut
TTITLE3=Ramon
TTITLE4=Greus problemes
TTITLE5=La nit més cega
TTITLE6=Foc al cor
TTITLE7=De carretera
TTITLE8=Després d'un dia molt llarg
TTITLE9=Blues del dilluns
TTITLE10=El dia que vinguis
TTITLE11=La pitjor part de tu
TTITLE12=Només vuit dies
TTITLE13=Assossegadament
TTITLE14=Mentre dormies
TTITLE15=Massa petit
TTITLE16=Sentir l'aire
TTITLE17=Per sobreviure
EXTD=YEAR: 1999
EXTT0=
EXTT1=
EXTT2=
EXTT3=
EXTT4=
EXTT5=
EXTT6=
EXTT7=
EXTT8=
EXTT9=
EXTT10=
EXTT11=
EXTT12=
EXTT13=
EXTT14=
EXTT15=
EXTT16=
EXTT17=
PLAYORDER=
